<?xml version="1.0" standalone="no"?>
<!DOCTYPE svg PUBLIC "-//W3C//DTD SVG 20010904//EN"
 "http://www.w3.org/TR/2001/REC-SVG-20010904/DTD/svg10.dtd">
<svg version="1.0" xmlns="http://www.w3.org/2000/svg"
 width="1103.000000pt" height="1280.000000pt" viewBox="0 0 1103.000000 1280.000000"
 preserveAspectRatio="xMidYMid meet">
<metadata>
Created by potrace 1.15, written by Peter Selinger 2001-2017
</metadata>
<g transform="translate(0.000000,1280.000000) scale(0.100000,-0.100000)"
fill="#000000" stroke="none">
<path d="M4341 12775 c-37 -80 -98 -286 -122 -408 -76 -402 -70 -851 17 -1247
53 -240 165 -529 274 -705 23 -38 51 -84 62 -102 11 -18 37 -108 58 -200 79
-346 158 -561 269 -733 22 -34 49 -86 60 -114 122 -328 56 -929 -205 -1856
-49 -173 -178 -596 -201 -658 l-9 -23 -299 1 c-164 0 -300 2 -302 3 -1 2 36
73 83 158 106 190 252 481 329 654 335 756 417 1300 249 1643 -48 98 -122 175
-262 270 -154 107 -305 243 -390 353 -37 49 -144 733 -186 1194 -28 300 -55
719 -57 855 -1 137 -8 148 -46 64 -165 -370 -197 -907 -82 -1374 61 -245 164
-469 310 -670 41 -56 51 -82 78 -190 70 -274 169 -517 260 -637 89 -117 114
-202 113 -393 -2 -300 -114 -721 -347 -1295 -95 -234 -260 -614 -274 -628 -4
-4 -101 -12 -217 -17 -867 -41 -1493 -150 -1908 -332 -179 -78 -324 -185 -367
-269 -72 -142 41 -286 336 -430 404 -197 989 -320 1860 -391 216 -18 1264 -18
1505 0 1122 82 2052 240 3101 528 213 58 583 169 599 179 22 14 4 -28 -130
-293 -529 -1050 -1021 -1838 -1529 -2447 -148 -176 -432 -470 -580 -597 -671
-581 -1335 -785 -2041 -628 -339 75 -700 253 -1048 517 -328 249 -746 676
-1114 1136 -306 383 -689 920 -998 1397 -120 185 -134 200 -70 70 344 -690
813 -1458 1216 -1990 323 -428 711 -829 1043 -1080 305 -230 654 -396 971
-461 104 -22 140 -24 375 -24 284 1 384 11 603 65 787 193 1503 756 2124 1670
380 559 737 1286 1001 2040 92 263 207 619 207 642 0 3 -37 -5 -82 -19 -973
-286 -2483 -453 -4094 -453 -1472 0 -2579 140 -2873 364 -78 59 -89 112 -38
196 157 263 832 431 1875 466 l203 7 -64 -134 c-317 -662 -316 -659 -293 -659
32 0 393 511 527 747 l24 43 310 0 c171 0 316 -4 322 -8 9 -6 -17 -97 -102
-352 -119 -360 -138 -427 -125 -435 20 -12 162 232 326 560 58 116 109 213
112 217 7 6 473 -16 579 -28 l53 -5 -175 -347 c-96 -191 -177 -360 -181 -377
l-7 -30 38 35 c55 52 269 341 397 537 l113 173 80 -5 c826 -53 1456 -98 2344
-166 217 -16 401 -28 410 -27 33 7 -825 134 -1399 207 -333 43 -950 108 -1200
126 -47 3 -98 8 -113 11 -28 6 -28 6 -11 32 47 71 207 356 290 517 433 839
564 1472 377 1828 -49 94 -118 166 -222 234 -115 75 -194 136 -265 203 -102
96 -114 116 -126 211 -54 424 -54 1229 0 1889 5 69 12 140 15 158 3 17 3 32 0
32 -16 0 -132 -268 -180 -414 -101 -304 -142 -579 -132 -871 12 -316 85 -560
241 -795 62 -94 64 -97 90 -235 47 -240 112 -413 200 -533 91 -124 116 -204
116 -375 0 -360 -196 -960 -565 -1735 l-64 -133 -33 5 c-18 3 -132 10 -253 16
-281 13 -335 17 -341 23 -3 3 18 58 46 124 294 673 478 1278 552 1813 20 145
16 513 -6 624 -37 184 -94 317 -183 426 -46 56 -71 79 -210 188 -129 101 -331
320 -362 393 -39 90 -123 713 -176 1299 -20 225 -49 696 -63 1050 -6 150 -8
162 -21 135z"/>
<path d="M9601 6094 c-212 -36 -440 -146 -641 -309 -82 -67 -259 -248 -332
-340 -69 -86 -190 -266 -184 -273 3 -2 40 27 83 65 257 229 561 420 753 473
245 67 521 -48 576 -239 83 -285 -204 -763 -823 -1371 -363 -358 -692 -622
-1041 -837 -237 -146 -395 -220 -667 -315 l-140 -49 115 6 c527 23 1166 339
1776 877 107 94 377 363 469 468 245 278 438 559 578 840 285 572 223 935
-171 1006 -97 17 -242 16 -351 -2z"/>
<path d="M7160 2561 c0 -4 28 -11 63 -14 34 -4 141 -16 237 -26 173 -20 405
-40 715 -61 447 -31 768 -77 1252 -180 278 -60 341 -78 439 -125 316 -153 311
-455 -14 -796 -469 -494 -1410 -890 -2402 -1013 -69 -9 -181 -21 -250 -28
-164 -17 -835 -17 -1090 0 -107 7 -301 20 -430 28 -2352 146 -4232 478 -4872
860 -102 61 -210 161 -239 221 -143 296 371 595 1526 888 160 40 349 86 420
100 72 15 137 31 145 36 11 7 8 8 -10 4 -14 -2 -90 -14 -170 -25 -389 -56
-907 -157 -1258 -246 -567 -143 -937 -296 -1114 -461 -331 -310 108 -645 1284
-982 518 -149 1362 -340 1968 -445 80 -14 186 -32 235 -41 646 -112 1361 -194
2090 -237 318 -19 1201 -16 1500 5 1000 71 1760 227 2485 510 582 227 1120
581 1308 862 46 69 47 71 46 150 -1 175 -95 339 -268 469 -405 304 -1150 477
-2331 541 -295 16 -1265 21 -1265 6z"/>
</g>
</svg>
